<?xml version="1.0" standalone="no"?>
<!DOCTYPE svg PUBLIC "-//W3C//DTD SVG 20010904//EN"
 "http://www.w3.org/TR/2001/REC-SVG-20010904/DTD/svg10.dtd">
<svg version="1.0" xmlns="http://www.w3.org/2000/svg"
 width="100.000000pt" height="100.000000pt" viewBox="0 0 2039.000000 2039.000000"
 preserveAspectRatio="xMidYMid meet">
<metadata>
Created by Ignacio Trujillo (https://github.com/gnaces).
All rights reserved. (c) 2015 Dawncoffee
</metadata>
<g transform="translate(0.000000,2039.000000) scale(0.100000,-0.100000)"
fill="#a4a4a4" stroke="none">
<path d="M8690 15710 c-1514 -53 -2882 -258 -4120 -616 -459 -133 -915 -323
-1200 -499 -234 -145 -455 -343 -544 -488 -204 -330 -138 -653 194 -940 167
-144 527 -327 781 -397 94 -25 194 -39 211 -29 22 14 -17 43 -177 130 -193
105 -360 211 -505 320 -231 173 -334 320 -347 494 -14 181 93 327 377 517 118
79 385 213 565 283 813 318 2274 585 3720 680 436 28 645 36 1160 42 1268 15
2509 -79 3735 -282 349 -58 473 -83 744 -151 824 -205 1318 -423 1596 -703
111 -112 135 -153 135 -231 -3 -292 -590 -663 -1475 -931 -1160 -352 -2561
-558 -4350 -639 -425 -20 -1401 -24 -1975 -9 -297 8 -629 14 -737 14 -173 0
-199 -2 -215 -17 -16 -17 -15 -18 23 -34 147 -62 669 -153 1194 -208 1186
-125 2537 -127 3825 -6 1262 119 2466 394 3210 732 546 248 902 566 992 888
13 50 18 100 17 215 0 136 -3 158 -28 232 -67 204 -313 475 -584 642 -193 120
-572 290 -867 389 -440 148 -844 247 -1355 331 -819 135 -1622 220 -2490 261
-292 14 -1221 20 -1510 10z"/>
<path d="M8595 14819 c-263 -10 -711 -35 -960 -55 -946 -73 -1860 -239 -2615
-475 -272 -85 -609 -225 -618 -256 -7 -24 73 -13 438 61 940 191 1542 276
2340 331 796 54 1973 58 2780 10 1084 -66 2275 -251 3015 -470 255 -75 456
-156 468 -189 12 -31 -20 -73 -76 -100 -241 -114 -761 -236 -1402 -330 -1595
-235 -2818 -329 -4030 -313 -574 8 -850 23 -1385 73 -497 46 -645 69 -815 125
-281 94 -208 166 270 268 783 166 1975 290 3370 351 132 6 578 15 990 20 413
5 758 12 768 16 74 28 -103 74 -458 119 -824 104 -2098 117 -3285 35 -721 -51
-1234 -117 -1677 -216 -495 -110 -726 -264 -711 -471 9 -125 121 -283 265
-374 304 -192 1173 -331 2373 -380 360 -15 1339 -6 1725 15 1436 80 2697 247
3605 477 484 123 805 252 925 373 198 199 153 446 -117 647 -163 121 -391 209
-823 317 -704 177 -1641 315 -2520 372 -467 30 -1318 39 -1840 19z"/>
<path d="M17340 14283 c-261 -25 -405 -54 -596 -118 -259 -86 -486 -217 -642
-371 -138 -136 -96 -154 143 -61 440 172 774 231 1157 207 254 -16 403 -48
612 -132 606 -241 1003 -673 1142 -1243 53 -220 70 -538 40 -765 -53 -396
-207 -777 -437 -1082 -335 -444 -791 -828 -1384 -1168 -220 -126 -692 -358
-1100 -540 -490 -220 -684 -312 -910 -435 -335 -181 -444 -252 -844 -551 -135
-102 -269 -196 -297 -209 -66 -31 -171 -49 -239 -40 -30 3 -55 9 -55 12 0 3
28 44 63 92 284 387 603 941 805 1396 l48 110 110 28 c267 69 1232 359 1489
447 382 132 727 302 971 477 352 252 633 573 814 931 196 389 212 877 39 1226
-73 148 -182 279 -311 376 -133 100 -266 159 -459 201 -145 33 -387 33 -536 1
-195 -42 -382 -121 -552 -233 -118 -78 -326 -279 -468 -453 -107 -130 -245
-274 -359 -373 -55 -48 -58 -52 -42 -68 41 -43 184 -24 311 40 97 49 153 88
334 231 267 211 399 294 563 352 147 51 238 66 405 66 176 -1 254 -18 386 -84
250 -126 365 -414 304 -762 -60 -344 -312 -711 -699 -1017 -261 -206 -592
-385 -1216 -656 -373 -161 -666 -305 -845 -414 -71 -43 -131 -77 -133 -76 -2
2 20 65 49 142 277 738 466 1589 541 2443 17 194 17 839 0 985 -17 149 -42
284 -53 291 -18 11 -38 -17 -48 -66 -6 -27 -26 -192 -46 -367 -107 -960 -249
-1643 -505 -2428 -377 -1155 -977 -2192 -1757 -3040 -434 -472 -1017 -927
-1537 -1200 -391 -206 -861 -342 -1436 -415 -544 -69 -1329 -80 -1865 -24
-899 92 -1629 342 -2204 753 -129 92 -469 374 -636 527 -781 716 -1405 1628
-1860 2719 -280 671 -469 1287 -650 2115 -73 331 -97 421 -119 439 -27 22 -38
-25 -43 -182 -16 -432 84 -1129 248 -1744 327 -1223 822 -2218 1536 -3090 141
-173 227 -268 422 -466 664 -675 1321 -1111 2027 -1346 426 -142 990 -241
1604 -281 211 -14 826 -14 1040 0 645 41 1122 125 1578 276 360 120 639 259
1002 499 565 373 1097 867 1533 1422 l89 113 36 -25 c100 -69 301 -90 431 -46
82 28 291 134 506 256 346 195 619 322 1112 516 1001 394 1249 497 1484 615
759 379 1303 800 1710 1324 303 389 488 820 566 1320 25 165 25 578 0 740 -65
405 -217 761 -447 1049 -138 172 -342 356 -525 473 -296 189 -682 327 -1004
358 -91 9 -315 11 -391 3z"/>
<path d="M14281 11924 c-54 -62 -143 -243 -331 -677 -578 -1334 -937 -1988
-1579 -2877 -317 -439 -379 -527 -419 -594 -125 -207 -13 -230 256 -53 264
173 578 467 857 802 663 796 1193 1988 1326 2985 7 52 13 158 13 235 1 121 -2
145 -19 180 -29 57 -53 57 -104 -1z"/>
<path d="M14730 7305 c0 -20 54 -54 312 -198 532 -297 778 -467 1014 -702 176
-175 278 -328 340 -510 36 -108 45 -294 19 -410 -44 -201 -242 -466 -505 -678
-855 -689 -2737 -1232 -4955 -1432 -1329 -119 -2797 -112 -4144 20 -1758 173
-3220 577 -4135 1143 -367 227 -628 525 -703 802 -26 98 -24 301 4 401 45 155
140 326 268 479 80 95 307 318 448 439 115 99 138 127 113 137 -37 14 -228
-73 -386 -176 -460 -302 -716 -658 -760 -1059 -52 -471 263 -980 845 -1366
1444 -957 3869 -1464 6850 -1432 521 6 677 12 1125 42 1174 81 2359 276 3270
539 217 63 689 220 915 306 1019 385 1622 814 1974 1404 117 197 156 352 148
581 -5 163 -31 274 -95 424 -100 231 -254 416 -522 627 -272 214 -639 406
-1049 548 -215 75 -391 107 -391 71z"/>
<path d="M12803 6203 c-22 -8 -15 -26 44 -118 31 -49 70 -119 87 -155 29 -60
31 -73 31 -170 0 -98 -2 -109 -30 -160 -176 -323 -1021 -635 -2155 -794 -319
-45 -684 -82 -1080 -108 -262 -17 -1360 -18 -1645 0 -494 30 -880 66 -1485
138 -377 44 -540 53 -559 30 -49 -59 181 -190 559 -316 602 -202 1399 -338
2215 -381 256 -13 933 -7 1155 11 1323 105 2312 387 2911 831 252 187 409 442
409 665 0 89 -40 207 -100 297 -95 142 -281 261 -357 230z"/>
</g>
</svg>
