<?xml version="1.0" standalone="no"?>
<!DOCTYPE svg PUBLIC "-//W3C//DTD SVG 20010904//EN"
 "http://www.w3.org/TR/2001/REC-SVG-20010904/DTD/svg10.dtd">
<svg version="1.0" xmlns="http://www.w3.org/2000/svg"
 width="256.000000pt" height="40.000000pt" viewBox="0 0 4096.000000 636.000000"
 preserveAspectRatio="xMidYMid meet">
<metadata>
Created by Ignacio Trujillo (https://github.com/gnaces).
All rights reserved. (c) 2015 Dawncoffee
</metadata>
<g transform="translate(0.000000,636.000000) scale(0.100000,-0.100000)"
fill="#000000" stroke="none">
<path d="M31501 6209 c-344 -29 -629 -115 -841 -255 -289 -191 -473 -480 -581
-915 -24 -94 -229 -1201 -483 -2601 l-442 -2438 335 0 336 0 354 1948 c195
1071 356 1953 359 1960 3 9 192 12 898 12 l894 0 -5 -22 c-10 -44 -705 -3871
-705 -3884 0 -12 56 -14 333 -14 l332 0 354 1943 c194 1068 355 1950 358 1960
4 16 45 17 673 17 l668 0 6 28 c12 58 76 451 76 466 0 14 -65 16 -666 16 -629
0 -665 1 -660 18 3 9 23 123 45 252 46 270 75 378 135 506 60 126 111 198 200
281 167 156 382 223 679 210 211 -9 416 -59 607 -148 46 -22 86 -36 88 -32 1
4 61 105 131 223 90 151 126 219 119 227 -19 24 -195 102 -318 141 -294 94
-596 129 -890 103 -304 -27 -538 -100 -743 -234 l-83 -54 -76 33 c-135 57
-334 123 -501 164 -356 87 -664 115 -986 89z m450 -519 c248 -25 481 -85 696
-181 l62 -28 -53 -113 c-92 -194 -136 -350 -200 -703 l-42 -230 -892 -3 -892
-2 5 22 c3 13 28 140 55 284 52 272 87 399 141 506 132 261 348 407 664 447
99 12 335 13 456 1z"/>
<path d="M8026 6053 c-2 -10 -73 -380 -156 -823 -83 -443 -153 -810 -155 -816
-2 -8 -35 -2 -102 18 -134 40 -285 73 -428 95 -167 24 -551 24 -720 -1 -529
-77 -958 -282 -1300 -621 -409 -406 -663 -963 -755 -1658 -27 -196 -37 -586
-21 -752 65 -671 372 -1098 896 -1250 310 -89 689 -81 1010 22 273 88 501 231
724 453 83 84 121 108 121 78 0 -7 -7 -103 -15 -213 -8 -110 -15 -217 -15
-237 l0 -38 300 0 c249 0 300 2 300 14 0 7 16 180 35 382 l34 369 451 2470
c248 1359 453 2482 456 2498 l6 27 -331 0 c-305 0 -330 -1 -335 -17z m-786
-2061 c127 -27 198 -48 297 -89 73 -31 82 -38 78 -56 -3 -12 -93 -519 -200
-1127 -108 -608 -205 -1134 -215 -1170 -55 -187 -209 -405 -383 -546 -221
-178 -470 -278 -761 -306 -294 -28 -539 46 -707 212 -140 138 -223 320 -271
590 -20 117 -17 602 5 755 69 468 207 833 424 1118 70 92 217 241 306 309 233
178 509 287 830 328 124 15 488 4 597 -18z"/>
<path d="M10600 4540 c-741 -71 -1311 -373 -1719 -911 -318 -421 -514 -996
-560 -1651 -47 -652 73 -1102 374 -1403 231 -232 556 -355 980 -371 244 -10
433 15 650 87 219 73 398 186 605 386 131 126 163 146 155 96 -3 -16 -12 -113
-20 -218 -8 -104 -17 -202 -20 -217 l-4 -28 304 0 305 0 0 28 c0 15 14 182 30
372 l29 345 291 1598 c159 879 290 1607 290 1617 0 16 -29 28 -167 74 -270 87
-586 153 -898 186 -139 15 -511 21 -625 10z m550 -525 c213 -29 410 -86 410
-119 0 -47 -404 -2245 -426 -2316 -117 -383 -424 -697 -806 -824 -134 -45
-216 -58 -403 -63 -154 -4 -194 -2 -276 15 -361 75 -578 338 -651 787 -16 102
-16 453 0 600 45 396 125 698 263 985 272 565 693 878 1279 950 105 13 472 4
610 -15z"/>
<path d="M20845 4539 c-438 -53 -840 -252 -1180 -582 l-115 -112 5 75 c12 167
25 398 25 452 l0 58 -289 0 -289 0 -6 -47 c-4 -27 -18 -167 -32 -313 -23 -250
-42 -359 -340 -1985 -173 -946 -317 -1732 -320 -1748 l-6 -27 335 0 336 0 10
53 c6 28 119 644 251 1367 132 723 250 1346 261 1385 44 147 138 300 269 439
301 316 720 491 1135 473 72 -3 157 -13 190 -22 201 -55 321 -176 377 -382 18
-66 21 -105 21 -253 1 -96 -5 -220 -12 -275 -7 -55 -120 -698 -252 -1429 -131
-731 -239 -1335 -239 -1343 0 -11 61 -13 335 -13 225 0 335 3 335 10 0 6 114
630 254 1388 140 757 262 1429 271 1492 23 161 30 396 16 502 -36 271 -143
477 -320 618 -126 100 -292 168 -501 206 -104 19 -415 26 -525 13z"/>
<path d="M24415 4539 c-512 -49 -991 -273 -1341 -626 -363 -367 -583 -865
-669 -1513 -23 -166 -32 -638 -16 -792 71 -690 398 -1151 944 -1333 442 -147
1007 -116 1564 85 167 61 446 207 524 276 15 13 5 36 -103 237 -65 122 -122
221 -126 220 -4 -1 -52 -29 -106 -64 -197 -123 -439 -222 -661 -269 -146 -31
-417 -39 -556 -15 -117 19 -249 65 -335 116 -74 44 -194 157 -250 235 -171
240 -247 623 -215 1084 28 395 99 694 231 968 222 460 563 743 1010 839 67 14
129 18 290 18 180 0 216 -3 294 -23 169 -43 319 -128 445 -253 56 -56 155
-180 187 -235 10 -17 31 -6 257 136 l246 155 -31 55 c-126 224 -357 437 -591
545 -288 133 -638 187 -992 154z"/>
<path d="M27505 4539 c-918 -85 -1559 -622 -1863 -1559 -70 -214 -136 -518
-168 -775 -25 -196 -26 -687 -2 -825 84 -471 283 -789 618 -985 234 -137 496
-198 855 -198 303 0 531 33 777 113 675 220 1134 763 1368 1616 84 306 126
562 142 862 29 528 -47 898 -244 1190 -278 412 -833 621 -1483 561z m420 -528
c328 -85 528 -327 601 -726 23 -125 26 -572 6 -760 -113 -1027 -576 -1688
-1267 -1810 -105 -18 -338 -21 -437 -6 -347 56 -572 276 -658 644 -34 148 -43
276 -37 542 17 686 167 1216 456 1605 73 99 211 235 302 300 151 106 365 195
529 219 41 6 86 13 100 15 14 3 93 3 175 1 110 -2 171 -9 230 -24z"/>
<path d="M35940 4544 c-19 -2 -73 -9 -120 -15 -996 -122 -1780 -900 -2020
-2004 -47 -220 -62 -351 -67 -620 -4 -209 -2 -287 11 -393 86 -676 427 -1098
1011 -1252 180 -48 316 -64 540 -64 424 0 797 85 1180 268 139 67 315 171 315
187 0 8 -207 428 -215 438 -2 1 -41 -19 -87 -47 -354 -212 -647 -309 -995
-328 -225 -12 -430 24 -598 106 -180 88 -288 197 -381 385 -105 214 -144 478
-118 810 l7 80 296 1 c709 2 1307 123 1761 355 310 159 532 370 658 625 81
162 118 316 128 519 24 502 -263 833 -806 930 -91 16 -419 29 -500 19z m279
-510 c187 -42 319 -168 361 -344 30 -125 6 -329 -51 -443 -208 -413 -859 -660
-1797 -684 l-243 -6 6 29 c120 520 428 1002 801 1250 276 183 639 261 923 198z"/>
<path d="M39250 4544 c-19 -2 -73 -9 -120 -15 -996 -122 -1780 -900 -2020
-2004 -47 -220 -62 -351 -67 -620 -4 -209 -2 -287 11 -393 86 -676 427 -1098
1011 -1252 180 -48 316 -64 540 -64 424 0 797 85 1180 268 139 67 315 171 315
187 0 8 -207 428 -215 438 -2 1 -41 -19 -87 -47 -354 -212 -647 -309 -995
-328 -225 -12 -430 24 -598 106 -180 88 -288 197 -381 385 -105 214 -144 478
-118 810 l7 80 296 1 c709 2 1307 123 1761 355 310 159 532 370 658 625 81
162 118 316 128 519 24 502 -263 833 -806 930 -91 16 -419 29 -500 19z m279
-510 c187 -42 319 -168 361 -344 30 -125 6 -329 -51 -443 -208 -413 -859 -660
-1797 -684 l-243 -6 6 29 c120 520 428 1002 801 1250 276 183 639 261 923 198z"/>
<path d="M12920 4424 c0 -3 -119 -657 -265 -1453 -146 -797 -270 -1495 -276
-1552 -15 -134 -6 -410 16 -509 64 -286 235 -496 496 -606 414 -175 1059 -140
1498 81 221 111 465 316 609 512 l60 82 7 -42 c72 -464 389 -710 958 -743 198
-11 468 21 677 81 750 215 1287 865 1533 1855 118 474 168 1045 138 1570 -12
207 -46 623 -57 693 l-6 37 -330 0 -330 0 6 -32 c7 -45 33 -327 47 -533 19
-263 16 -775 -5 -985 -66 -662 -246 -1212 -525 -1604 -75 -106 -226 -263 -324
-337 -94 -71 -272 -160 -377 -189 -123 -33 -283 -46 -409 -32 -280 31 -429
150 -488 389 -25 99 -22 346 6 528 18 120 492 2710 508 2773 l5 22 -336 0
-336 0 -5 -22 c-3 -13 -115 -637 -250 -1387 -149 -825 -256 -1394 -270 -1438
-126 -374 -457 -696 -841 -816 -129 -40 -217 -52 -384 -51 -123 1 -171 6 -233
23 -205 55 -323 173 -364 365 -20 95 -19 309 2 472 9 71 129 738 266 1483 137
745 249 1358 249 1363 0 4 -151 8 -335 8 -184 0 -335 -3 -335 -6z"/>
<path d="M3365 3748 c-10 -47 -495 -2739 -511 -2837 -23 -145 -16 -325 16
-406 33 -85 122 -172 212 -208 189 -75 471 -76 733 -1 97 28 228 84 240 103 5
10 -91 271 -100 271 -2 0 -34 -14 -72 -31 -138 -62 -226 -82 -363 -83 -112 -1
-130 1 -172 22 -27 13 -56 38 -68 56 -27 44 -38 135 -29 232 5 43 69 416 144
827 74 411 135 750 135 752 0 3 165 5 368 5 l367 0 28 153 c15 83 27 158 27
164 0 10 -83 13 -363 15 l-364 3 88 480 c49 264 89 486 89 493 0 9 -47 12
-200 12 -199 0 -200 0 -205 -22z"/>
<path d="M1675 2835 c-392 -64 -696 -240 -916 -530 -172 -226 -280 -511 -330
-875 -19 -136 -17 -429 4 -533 39 -195 108 -328 231 -445 122 -116 273 -177
498 -202 318 -36 610 64 823 279 78 80 100 89 92 39 -3 -18 -9 -76 -12 -128
-4 -52 -9 -103 -12 -112 -4 -17 9 -18 181 -18 l186 0 0 23 c0 12 7 108 16 212
13 158 45 352 190 1153 96 530 174 972 174 982 0 32 -244 103 -500 146 -135
23 -506 28 -625 9z m495 -311 c52 -9 118 -25 146 -35 l50 -19 -122 -673 c-137
-753 -128 -711 -161 -792 -72 -174 -228 -332 -400 -406 -131 -56 -367 -78
-490 -45 -173 46 -294 174 -348 371 -23 82 -31 341 -15 476 77 667 403 1075
911 1138 96 13 309 5 429 -15z"/>
</g>
</svg>
