<?xml version="1.0" standalone="no"?>
<!DOCTYPE svg PUBLIC "-//W3C//DTD SVG 20010904//EN"
 "http://www.w3.org/TR/2001/REC-SVG-20010904/DTD/svg10.dtd">
<svg version="1.0" xmlns="http://www.w3.org/2000/svg"
 width="547.000000pt" height="98.000000pt" viewBox="0 0 547.000000 98.000000"
 preserveAspectRatio="xMidYMid meet">
<metadata>
Created by Ignacio Trujillo (https://github.com/gnaces).
All rights reserved. (c) 2015 Dawncoffee
</metadata>
<g transform="translate(0.000000,98.000000) scale(0.100000,-0.100000)"
fill="rgb(0,0,0)" stroke="none">
<path d="M4469 941 c-14 -5 -35 -13 -46 -20 -17 -8 -36 -8 -85 4 -98 23 -196
20 -249 -8 -74 -39 -81 -62 -154 -468 -36 -200 -69 -383 -74 -407 l-9 -42 47
0 46 0 55 312 55 313 123 3 124 3 -6 -28 c-11 -50 -106 -583 -106 -593 0 -6
20 -10 45 -10 25 0 45 2 45 5 0 3 25 142 55 310 30 167 55 307 55 310 0 3 42
5 94 5 l94 0 4 35 4 35 -89 0 -89 0 7 43 c19 113 91 159 193 124 l43 -15 15
30 c13 25 14 32 2 39 -40 26 -143 36 -199 20z m-144 -81 c22 -8 26 -14 20 -33
-4 -12 -12 -46 -18 -74 l-11 -53 -123 0 -123 0 6 28 c21 95 34 118 79 139 33
15 122 11 170 -7z"/>
<path d="M994 824 c-10 -58 -21 -109 -24 -114 -4 -6 -22 -5 -45 1 -102 28
-237 -12 -310 -93 -59 -66 -86 -140 -92 -254 -6 -102 4 -147 45 -196 64 -76
190 -77 287 -4 l35 27 0 -30 c0 -29 2 -31 39 -31 l40 0 6 58 c4 31 34 204 66
385 33 180 59 334 59 342 0 11 -12 15 -44 15 l-43 0 -19 -106z m-79 -185 c38
-10 44 -14 40 -33 -3 -11 -16 -85 -29 -163 -32 -184 -48 -214 -129 -248 -54
-23 -100 -19 -136 10 -41 35 -55 83 -48 170 10 130 75 231 168 260 55 17 79
18 134 4z"/>
<path d="M1295 711 c-155 -38 -255 -183 -255 -372 0 -81 14 -124 52 -165 69
-73 212 -72 291 3 l27 27 0 -37 c0 -36 1 -37 38 -37 l37 0 23 148 c13 81 33
205 46 275 l24 128 -27 10 c-69 27 -190 36 -256 20z m175 -77 c4 -5 2 -40 -5
-79 -7 -38 -21 -114 -30 -169 -19 -106 -45 -150 -106 -182 -38 -19 -119 -18
-148 2 -49 35 -64 124 -37 235 24 102 75 169 151 197 33 13 162 10 175 -4z"/>
<path d="M2665 704 c-22 -8 -57 -28 -77 -45 l-38 -30 0 36 c0 34 -1 35 -40 35
-39 0 -40 -1 -40 -33 0 -18 -20 -144 -45 -279 -25 -136 -45 -249 -45 -252 0
-3 20 -6 44 -6 l45 0 10 53 c6 28 22 117 36 196 14 79 32 156 40 172 45 85
197 128 240 66 22 -31 19 -79 -19 -294 l-33 -193 46 0 46 0 39 216 c40 223 42
274 11 320 -33 51 -135 69 -220 38z"/>
<path d="M3190 711 c-93 -29 -165 -96 -202 -190 -32 -82 -33 -248 -1 -308 28
-51 63 -80 117 -94 57 -16 158 -4 222 25 l55 25 -16 31 c-12 24 -21 30 -33 24
-71 -31 -129 -45 -161 -39 -87 16 -116 63 -115 187 1 77 5 95 33 153 25 50 42
70 74 89 82 47 157 41 208 -18 21 -24 23 -24 46 -8 l25 16 -21 -42 c-47 -92
-65 -237 -40 -327 29 -104 150 -150 290 -109 41 12 66 28 105 68 65 67 94 144
101 273 7 108 -10 167 -58 207 -79 67 -237 58 -324 -17 l-39 -34 -28 33 c-46
53 -159 79 -238 55z m539 -76 c87 -45 76 -292 -18 -399 -44 -50 -135 -70 -189
-42 -44 23 -57 59 -57 155 0 143 46 244 129 282 50 22 97 24 135 4z"/>
<path d="M4716 703 c-71 -21 -165 -117 -195 -198 -50 -133 -35 -283 34 -344
68 -59 192 -67 299 -18 l57 26 -16 31 c-8 16 -18 30 -21 30 -2 0 -23 -9 -45
-21 -60 -30 -128 -35 -174 -13 -45 21 -78 84 -73 142 l3 37 60 2 c209 9 334
96 322 226 -2 27 -12 56 -23 68 -43 49 -133 62 -228 32z m144 -73 c40 -40 17
-111 -47 -147 -42 -23 -125 -43 -180 -43 -35 0 -35 1 -29 32 10 50 64 126 110
153 52 31 117 34 146 5z"/>
<path d="M5166 703 c-71 -21 -165 -117 -195 -198 -50 -133 -35 -283 34 -344
68 -59 192 -67 299 -18 l57 26 -16 31 c-8 16 -18 30 -21 30 -2 0 -23 -9 -45
-21 -60 -30 -128 -35 -174 -13 -45 21 -78 84 -73 142 l3 37 60 2 c209 9 334
96 322 226 -2 27 -12 56 -23 68 -43 49 -133 62 -228 32z m144 -73 c40 -40 17
-111 -47 -147 -42 -23 -125 -43 -180 -43 -35 0 -35 1 -29 32 10 50 64 126 110
153 52 31 117 34 146 5z"/>
<path d="M1607 488 c-43 -245 -44 -271 -17 -316 51 -83 210 -83 303 -1 l44 38
15 -33 c47 -99 241 -83 334 26 79 95 124 303 98 461 -6 36 -8 37 -48 37 l-41
0 -1 -137 c0 -112 -4 -150 -21 -201 -28 -85 -66 -137 -117 -162 -54 -25 -86
-25 -120 1 -21 16 -26 29 -26 63 0 35 40 283 66 409 5 26 4 27 -40 27 -39 0
-46 -3 -51 -22 -2 -13 -19 -102 -36 -198 -17 -96 -37 -186 -44 -201 -51 -98
-205 -132 -236 -52 -11 28 -5 76 50 376 l18 97 -46 0 -47 0 -37 -212z"/>
<path d="M375 488 c-14 -46 -55 -321 -50 -337 8 -26 46 -36 86 -25 39 11 34
29 -8 29 -17 0 -34 3 -38 7 -4 4 1 50 10 102 l17 96 38 0 c29 0 39 4 43 20 4
18 0 20 -35 20 -39 0 -40 0 -33 33 4 17 9 40 11 50 4 12 0 17 -16 17 -11 0
-22 -6 -25 -12z"/>
<path d="M145 397 c-16 -8 -38 -23 -47 -33 -46 -52 -63 -167 -33 -211 22 -31
78 -40 121 -19 19 8 34 11 34 6 0 -6 8 -10 18 -10 14 0 20 21 38 128 12 70 18
131 14 135 -14 16 -114 18 -145 4z m93 -26 c12 -7 12 -22 1 -87 -14 -88 -46
-134 -93 -134 -82 0 -70 174 15 217 28 15 58 16 77 4z"/>
</g>
</svg>
